<?xml version="1.0" encoding="UTF-8"?>
<!DOCTYPE svg PUBLIC "-//W3C//DTD SVG 1.1//EN" "http://www.w3.org/Graphics/SVG/1.1/DTD/svg11.dtd">
<!-- Creator: CorelDRAW (Evaluation Version) -->
<svg xmlns="http://www.w3.org/2000/svg" xml:space="preserve" width="1.20665in" height="1.06772in" version="1.1" shape-rendering="geometricPrecision" text-rendering="geometricPrecision" image-rendering="optimizeQuality" fill-rule="evenodd" clip-rule="evenodd"
viewBox="0 0 1233.42 1091.4"
 xmlns:xlink="http://www.w3.org/1999/xlink"
 xmlns:xodm="http://www.corel.com/coreldraw/odm/2003">
 <g id="Layer_x0020_1">
  <metadata id="CorelCorpID_0Corel-Layer"/>
  <path fill="#2D2A2B" d="M224.81 17.77c-9.19,-5.73 -18.39,-11.47 -27.59,-17.2 -181.55,109.51 -258.78,338.39 -133.34,475.77 49.44,54.13 229.66,152.81 304.36,199.23 247.85,154.04 326.88,201.81 642.7,398.63 9.18,5.72 18.39,11.47 27.59,17.2 160.95,-97.08 239.91,-287.98 168.37,-425.77 -18.94,-36.48 -48.45,-69.24 -89.77,-95.55 -296.76,-188.98 -594.76,-366.86 -892.32,-552.3zm988.09 246.79l-559.44 1.26 75.13 -257.86c0,0 481.06,-78.33 484.31,256.61zm-1212.9 552.78l559.44 -1.26 -78.09 267.97c0,0 -478.11,68.23 -481.35,-266.71z"/>
 </g>
</svg>
