<svg width="17" height="18" viewBox="0 0 17 18" fill="none" xmlns="http://www.w3.org/2000/svg">
<mask id="path-1-outside-1_4452_39836" maskUnits="userSpaceOnUse" x="-1.32843" y="-0.899495" width="19.799" height="19.799" fill="black">
<rect fill="white" x="-1.32843" y="-0.899495" width="19.799" height="19.799"/>
<path d="M7.08573 3.41427C7.86678 2.63322 9.13311 2.63322 9.91416 3.41427L14.0857 7.58579C14.8667 8.36683 14.8667 9.63317 14.0857 10.4142L9.91416 14.5857C9.13311 15.3668 7.86678 15.3668 7.08573 14.5857L2.91421 10.4142C2.13316 9.63317 2.13317 8.36684 2.91421 7.58579L7.08573 3.41427ZM8.49994 6.99952C7.3954 6.99955 6.49947 7.89545 6.49947 9C6.49947 10.1046 7.3954 11.0004 8.49994 11.0005C9.60451 11.0005 10.5004 10.1046 10.5004 9C10.5004 7.89543 9.60451 6.99952 8.49994 6.99952Z"/>
</mask>
<path d="M7.08573 3.41427C7.86678 2.63322 9.13311 2.63322 9.91416 3.41427L14.0857 7.58579C14.8667 8.36683 14.8667 9.63317 14.0857 10.4142L9.91416 14.5857C9.13311 15.3668 7.86678 15.3668 7.08573 14.5857L2.91421 10.4142C2.13316 9.63317 2.13317 8.36684 2.91421 7.58579L7.08573 3.41427ZM8.49994 6.99952C7.3954 6.99955 6.49947 7.89545 6.49947 9C6.49947 10.1046 7.3954 11.0004 8.49994 11.0005C9.60451 11.0005 10.5004 10.1046 10.5004 9C10.5004 7.89543 9.60451 6.99952 8.49994 6.99952Z" fill="#FF5C5C"/>
<path d="M7.08573 3.41427L8.49994 4.82848L7.08573 3.41427ZM9.91416 3.41427L11.3284 2.00006L11.3284 2.00006L9.91416 3.41427ZM14.0857 7.58579L12.6715 9L14.0857 7.58579ZM14.0857 10.4142L15.4999 11.8284L14.0857 10.4142ZM9.91416 14.5857L8.49994 13.1715L8.49994 13.1715L9.91416 14.5857ZM7.08573 14.5857L5.67152 15.9999L7.08573 14.5857ZM2.91421 10.4142L4.32843 9L4.32843 9L2.91421 10.4142ZM2.91421 7.58579L1.5 6.17157L1.5 6.17157L2.91421 7.58579ZM8.49994 6.99952V4.99952H8.49989L8.49994 6.99952ZM8.49994 11.0005L8.49989 13.0005H8.49994V11.0005ZM7.08573 3.41427L8.49994 4.82848L8.49994 4.82848L9.91416 3.41427L11.3284 2.00006C9.76627 0.43796 7.23361 0.43796 5.67152 2.00006L7.08573 3.41427ZM9.91416 3.41427L8.49994 4.82848L12.6715 9L14.0857 7.58579L15.4999 6.17157L11.3284 2.00006L9.91416 3.41427ZM14.0857 7.58579L12.6715 9L14.0857 10.4142L15.4999 11.8284C17.062 10.2663 17.062 7.73367 15.4999 6.17157L14.0857 7.58579ZM14.0857 10.4142L12.6715 9L8.49994 13.1715L9.91416 14.5857L11.3284 15.9999L15.4999 11.8284L14.0857 10.4142ZM9.91416 14.5857L8.49994 13.1715L8.49994 13.1715L7.08573 14.5857L5.67152 15.9999C7.23361 17.562 9.76627 17.562 11.3284 15.9999L9.91416 14.5857ZM7.08573 14.5857L8.49994 13.1715L4.32843 9L2.91421 10.4142L1.5 11.8284L5.67152 15.9999L7.08573 14.5857ZM2.91421 10.4142L4.32843 9L4.32843 9L2.91421 7.58579L1.5 6.17157C-0.0620968 7.73367 -0.0620975 10.2663 1.5 11.8284L2.91421 10.4142ZM2.91421 7.58579L4.32843 9L8.49994 4.82848L7.08573 3.41427L5.67152 2.00006L1.5 6.17157L2.91421 7.58579ZM8.49994 6.99952L8.49989 4.99952C6.29087 4.99959 4.49947 6.79082 4.49947 9H6.49947H8.49947L8.5 8.99952L8.49994 6.99952ZM6.49947 9H4.49947C4.49947 11.2092 6.29087 13.0004 8.49989 13.0005L8.49994 11.0005L8.5 9.00048L8.49947 9H6.49947ZM8.49994 11.0005V13.0005C10.7091 13.0005 12.5004 11.2091 12.5004 9H10.5004H8.50042L8.49994 9.00048V11.0005ZM10.5004 9H12.5004C12.5004 6.79086 10.7091 4.99952 8.49994 4.99952V6.99952V8.99952L8.50042 9H10.5004Z" fill="#382328" mask="url(#path-1-outside-1_4452_39836)"/>
</svg>
