<?xml version="1.0" encoding="UTF-8"?>
<!DOCTYPE svg PUBLIC "-//W3C//DTD SVG 1.1//EN" "http://www.w3.org/Graphics/SVG/1.1/DTD/svg11.dtd">
<!-- Creator: CorelDRAW (Evaluation Version) -->
<svg xmlns="http://www.w3.org/2000/svg" xml:space="preserve" width="1.70667in" height="1.70667in" version="1.1" shape-rendering="geometricPrecision" text-rendering="geometricPrecision" image-rendering="optimizeQuality" fill-rule="evenodd" clip-rule="evenodd"
viewBox="0 0 1706.66 1706.66"
 xmlns:xlink="http://www.w3.org/1999/xlink"
 xmlns:xodm="http://www.corel.com/coreldraw/odm/2003">
 <g id="Layer_x0020_1">
  <metadata id="CorelCorpID_0Corel-Layer"/>
  <path fill="#00A755" d="M324.14 0l1058.39 0c178.7,0 324.14,145.44 324.14,324.14l0 1058.39c0,178.7 -145.44,324.14 -324.14,324.14l-1058.39 0c-178.7,0 -324.14,-145.44 -324.14,-324.14l0 -1058.39c0,-178.7 145.44,-324.14 324.14,-324.14z"/>
  <path fill="white" d="M483.03 336.58c-8.99,-5.61 -17.99,-11.22 -26.99,-16.83 -177.61,107.14 -253.16,331.04 -130.44,465.45 48.37,52.96 224.68,149.49 297.76,194.91 242.47,150.7 319.79,197.43 628.75,389.98 8.98,5.6 17.99,11.22 26.99,16.83 157.46,-94.98 234.71,-281.74 164.71,-416.53 -18.53,-35.69 -47.4,-67.74 -87.82,-93.48 -290.32,-184.88 -581.86,-358.9 -872.96,-540.32zm966.65 241.44l-547.3 1.23 73.5 -252.27c0,0 470.62,-76.63 473.8,251.04zm-1186.58 540.79l547.3 -1.23 -76.39 262.15c0,0 -467.74,66.75 -470.91,-260.92z"/>
 </g>
</svg>
