<?xml version="1.0" encoding="UTF-8"?>
<!DOCTYPE svg PUBLIC "-//W3C//DTD SVG 1.1//EN" "http://www.w3.org/Graphics/SVG/1.1/DTD/svg11.dtd">
<!-- Creator: CorelDRAW (Evaluation Version) -->
<svg xmlns="http://www.w3.org/2000/svg" xml:space="preserve" width="1.70667in" height="1.70667in" version="1.1" shape-rendering="geometricPrecision" text-rendering="geometricPrecision" image-rendering="optimizeQuality" fill-rule="evenodd" clip-rule="evenodd"
viewBox="0 0 1706.66 1706.66"
 xmlns:xlink="http://www.w3.org/1999/xlink"
 xmlns:xodm="http://www.corel.com/coreldraw/odm/2003">
 <g id="Layer_x0020_1">
  <metadata id="CorelCorpID_0Corel-Layer"/>
  <path fill="#00A755" d="M324.14 0l1058.39 0c178.7,0 324.14,145.44 324.14,324.14l0 1058.39c0,178.7 -145.44,324.14 -324.14,324.14l-1058.39 0c-178.7,0 -324.14,-145.44 -324.14,-324.14l0 -1058.39c0,-178.7 145.44,-324.14 324.14,-324.14z"/>
  <path fill="white" d="M573.73 458.76c-6.86,-4.28 -13.74,-8.56 -20.61,-12.85 -135.59,81.79 -193.28,252.73 -99.59,355.33 36.93,40.43 171.52,114.13 227.32,148.8 185.11,115.05 244.14,150.72 480.01,297.72 6.85,4.28 13.74,8.56 20.61,12.85 120.2,-72.51 179.18,-215.09 125.74,-318 -14.15,-27.24 -36.18,-51.71 -67.04,-71.37 -221.64,-141.14 -444.2,-273.99 -666.44,-412.49zm737.97 184.32l-417.83 0.94 56.11 -192.59c0,0 359.29,-58.51 361.71,191.65zm-905.87 412.85l417.83 -0.94 -58.32 200.14c0,0 -357.08,50.96 -359.51,-199.2z"/>
 </g>
</svg>
