<svg width="96" height="96" viewBox="0 0 96 96" fill="none" xmlns="http://www.w3.org/2000/svg">
<path d="M68.1519 75.7372C62.2943 79.993 55.2397 82.2852 47.9993 82.2852C40.7589 82.2852 33.7043 79.993 27.8466 75.7372M63.0291 17.1837C69.5368 20.3577 74.8726 25.5104 78.2718 31.9033C81.6709 38.2962 82.959 45.6012 81.9513 52.7711M14.0476 52.7708C13.0399 45.6008 14.328 38.2959 17.7271 31.903C21.1263 25.5101 26.4621 20.3573 32.9698 17.1833M46.0598 29.3675L29.3673 46.06C28.6885 46.7389 28.349 47.0783 28.2218 47.4697C28.11 47.814 28.11 48.1849 28.2218 48.5292C28.349 48.9206 28.6885 49.2601 29.3673 49.939L46.0598 66.6314C46.7387 67.3103 47.0781 67.6497 47.4695 67.7769C47.8138 67.8888 48.1847 67.8888 48.529 67.7769C48.9204 67.6497 49.2599 67.3103 49.9388 66.6314L66.6312 49.939C67.3101 49.2601 67.6495 48.9206 67.7767 48.5292C67.8886 48.1849 67.8886 47.814 67.7767 47.4697C67.6495 47.0783 67.3101 46.7389 66.6312 46.06L49.9388 29.3675C49.2599 28.6887 48.9204 28.3492 48.529 28.222C48.1847 28.1102 47.8138 28.1102 47.4695 28.222C47.0781 28.3492 46.7387 28.6887 46.0598 29.3675Z" stroke="#404040" stroke-width="6.85714" stroke-linecap="round" stroke-linejoin="round"/>
</svg>
